<?xml version="1.0" encoding="UTF-8"?>
<svg width="583px" height="104px" viewBox="0 0 583 104" version="1.1" xmlns="http://www.w3.org/2000/svg" xmlns:xlink="http://www.w3.org/1999/xlink" xmlns:sketch="http://www.bohemiancoding.com/sketch/ns">
    <!-- Generator: Sketch 3.3.2 (12043) - http://www.bohemiancoding.com/sketch -->
    <title>HOOKED</title>
    <desc>Created with Sketch.</desc>
    <defs></defs>
    <g id="Page-1" stroke="none" stroke-width="1" fill="none" fill-rule="evenodd" sketch:type="MSPage">
        <path d="M76.912,0.76 L76.912,103 L74.032,103 L74.032,52.168 L3.04,52.168 L3.04,103 L0.16,103 L0.16,0.76 L3.04,0.76 L3.04,49.288 L74.032,49.288 L74.032,0.76 L76.912,0.76 Z M145.744,103.72 C138.639964,103.72 132.184029,102.232015 126.376,99.256 C120.567971,96.2799851 115.552021,92.392024 111.328,87.592 C107.103979,82.791976 103.840012,77.2720312 101.536,71.032 C99.2319885,64.7919688 98.08,58.4080326 98.08,51.88 C98.08,45.0639659 99.3039878,38.5360312 101.752,32.296 C104.200012,26.0559688 107.559979,20.536024 111.832,15.736 C116.104021,10.935976 121.143971,7.12001416 126.952,4.288 C132.760029,1.45598584 139.023966,0.04 145.744,0.04 C152.752035,0.04 159.183971,1.55198488 165.04,4.576 C170.896029,7.60001512 175.911979,11.5599755 180.088,16.456 C184.264021,21.3520245 187.503988,26.895969 189.808,33.088 C192.112012,39.280031 193.264,45.5439683 193.264,51.88 C193.264,58.7920346 192.040012,65.3679688 189.592,71.608 C187.143988,77.8480312 183.784021,83.3439762 179.512,88.096 C175.239979,92.8480238 170.224029,96.6399858 164.464,99.472 C158.703971,102.304014 152.464034,103.72 145.744,103.72 L145.744,103.72 Z M100.96,51.88 C100.96,58.2160317 102.087989,64.3359705 104.344,70.24 C106.600011,76.1440295 109.69598,81.3759772 113.632,85.936 C117.56802,90.4960228 122.271973,94.1199866 127.744,96.808 C133.216027,99.4960134 139.215967,100.84 145.744,100.84 C152.368033,100.84 158.439972,99.4240142 163.96,96.592 C169.480028,93.7599858 174.183981,90.040023 178.072,85.432 C181.960019,80.823977 184.983989,75.5920293 187.144,69.736 C189.304011,63.8799707 190.384,57.9280302 190.384,51.88 C190.384,45.5439683 189.256011,39.4240295 187,33.52 C184.743989,27.6159705 181.60002,22.3840228 177.568,17.824 C173.53598,13.2639772 168.808027,9.64001344 163.384,6.952 C157.959973,4.26398656 152.080032,2.92 145.744,2.92 C139.119967,2.92 133.048028,4.33598584 127.528,7.168 C122.007972,10.0000142 117.28002,13.719977 113.344,18.328 C109.40798,22.936023 106.360011,28.1679707 104.2,34.024 C102.039989,39.8800293 100.96,45.8319698 100.96,51.88 L100.96,51.88 Z M254.752,103.72 C247.647964,103.72 241.192029,102.232015 235.384,99.256 C229.575971,96.2799851 224.560021,92.392024 220.336,87.592 C216.111979,82.791976 212.848012,77.2720312 210.544,71.032 C208.239988,64.7919688 207.088,58.4080326 207.088,51.88 C207.088,45.0639659 208.311988,38.5360312 210.76,32.296 C213.208012,26.0559688 216.567979,20.536024 220.84,15.736 C225.112021,10.935976 230.151971,7.12001416 235.96,4.288 C241.768029,1.45598584 248.031966,0.04 254.752,0.04 C261.760035,0.04 268.191971,1.55198488 274.048,4.576 C279.904029,7.60001512 284.919979,11.5599755 289.096,16.456 C293.272021,21.3520245 296.511988,26.895969 298.816,33.088 C301.120012,39.280031 302.272,45.5439683 302.272,51.88 C302.272,58.7920346 301.048012,65.3679688 298.6,71.608 C296.151988,77.8480312 292.792021,83.3439762 288.52,88.096 C284.247979,92.8480238 279.232029,96.6399858 273.472,99.472 C267.711971,102.304014 261.472034,103.72 254.752,103.72 L254.752,103.72 Z M209.968,51.88 C209.968,58.2160317 211.095989,64.3359705 213.352,70.24 C215.608011,76.1440295 218.70398,81.3759772 222.64,85.936 C226.57602,90.4960228 231.279973,94.1199866 236.752,96.808 C242.224027,99.4960134 248.223967,100.84 254.752,100.84 C261.376033,100.84 267.447972,99.4240142 272.968,96.592 C278.488028,93.7599858 283.191981,90.040023 287.08,85.432 C290.968019,80.823977 293.991989,75.5920293 296.152,69.736 C298.312011,63.8799707 299.392,57.9280302 299.392,51.88 C299.392,45.5439683 298.264011,39.4240295 296.008,33.52 C293.751989,27.6159705 290.60802,22.3840228 286.576,17.824 C282.54398,13.2639772 277.816027,9.64001344 272.392,6.952 C266.967973,4.26398656 261.088032,2.92 254.752,2.92 C248.127967,2.92 242.056028,4.33598584 236.536,7.168 C231.015972,10.0000142 226.28802,13.719977 222.352,18.328 C218.41598,22.936023 215.368011,28.1679707 213.208,34.024 C211.047989,39.8800293 209.968,45.8319698 209.968,51.88 L209.968,51.88 Z M323.44,103 L323.44,0.76 L326.32,0.76 L326.32,67.144 L391.408,0.76 L395.584,0.76 L351.952,45.4 L397.6,103 L393.856,103 L349.792,47.416 L326.32,71.176 L326.32,103 L323.44,103 Z M479.968,100.12 L479.968,103 L412.864,103 L412.864,0.76 L478.672,0.76 L478.672,3.64 L415.744,3.64 L415.744,49.288 L470.896,49.288 L470.896,52.168 L415.744,52.168 L415.744,100.12 L479.968,100.12 Z M501.712,103 L501.712,0.76 L534.544,0.76 C542.60804,0.76 549.63997,2.10398656 555.64,4.792 C561.64003,7.48001344 566.63198,11.127977 570.616,15.736 C574.60002,20.344023 577.57599,25.743969 579.544,31.936 C581.51201,38.128031 582.496,44.727965 582.496,51.736 C582.496,59.5120389 581.368011,66.5439686 579.112,72.832 C576.855989,79.1200314 573.664021,84.4959777 569.536,88.96 C565.407979,93.4240223 560.36803,96.8799878 554.416,99.328 C548.46397,101.776012 541.840036,103 534.544,103 L501.712,103 Z M579.616,51.736 C579.616,44.727965 578.63201,38.2960293 576.664,32.44 C574.69599,26.5839707 571.792019,21.5200214 567.952,17.248 C564.111981,12.9759786 559.384028,9.640012 553.768,7.24 C548.151972,4.839988 541.744036,3.64 534.544,3.64 L504.592,3.64 L504.592,100.12 L534.544,100.12 C541.936037,100.12 548.439972,98.8960122 554.056,96.448 C559.672028,93.9999878 564.375981,90.6160216 568.168,86.296 C571.960019,81.9759784 574.81599,76.8640295 576.736,70.96 C578.65601,65.0559705 579.616,58.6480346 579.616,51.736 L579.616,51.736 Z" id="HOOKED" fill="#FFFFFF" sketch:type="MSShapeGroup"></path>
    </g>
</svg>